<svg xmlns="http://www.w3.org/2000/svg" width="211" height="36" viewBox="0 0 211 36"><g><g><g opacity="-1"><g><text dominant-baseline="text-before-edge" style="text-transform:uppercase;line-height:77px" fill="#6d6e70" font-family="'Nunito','Nunito-Regular'" font-size="31.2" font-style="none" font-weight="400" transform="translate(43 12)"><tspan style="font-kerning:normal">Crowd</tspan><tspan style="font-kerning:normal" fill="#595959">me</tspan></text></g></g><g opacity="-1"><path fill="#8fc63d" d="M3.5 16A3.5 3.5 0 0 1 7 19.5v13a3.5 3.5 0 0 1-7 0v-13A3.5 3.5 0 0 1 3.5 16z"/></g><g opacity="-1"><path fill="#8fc63d" d="M16.5 0A3.5 3.5 0 0 1 20 3.5v29a3.5 3.5 0 0 1-7 0v-29A3.5 3.5 0 0 1 16.5 0z"/></g><g opacity="-1"><path fill="#8fc63d" d="M3.5 7a3.5 3.5 0 1 1 0 7 3.5 3.5 0 0 1 0-7z"/></g><g opacity="-1"><path fill="#8fc63d" d="M29.5 7a3.5 3.5 0 0 1 3.5 3.5v22a3.5 3.5 0 0 1-7 0v-22A3.5 3.5 0 0 1 29.5 7z"/></g></g></g></svg>